<?xml version="1.0" encoding="utf-8"?>
<!-- Generator: Adobe Illustrator 22.0.1, SVG Export Plug-In . SVG Version: 6.00 Build 0)  -->
<svg version="1.1" id="Layer_1" xmlns="http://www.w3.org/2000/svg" xmlns:xlink="http://www.w3.org/1999/xlink" x="0px" y="0px"
	 viewBox="0 0 21.2 21" style="enable-background:new 0 0 21.2 21;" xml:space="preserve">
<style type="text/css">
	.st0{fill:none;stroke:#009245;stroke-miterlimit:10;}
</style>
<g>
	<path class="st0" d="M17.9,3l-0.6,15.3c0,1.2-1,2.2-2.3,2.2l-9.1,0c-1.3,0-2.3-1-2.3-2.2L2.8,3L17.9,3z"/>
	<line class="st0" x1="0" y1="3" x2="21.1" y2="3"/>
	<path class="st0" d="M14,1.9L14,1.9c0-0.8-0.7-1.4-1.6-1.4l-4,0c-0.9,0-1.6,0.6-1.6,1.4l0,0l0,1.1L14,3L14,1.9z"/>
	<line class="st0" x1="6.8" y1="6.1" x2="8" y2="18.2"/>
	<line class="st0" x1="14.7" y1="6.1" x2="13.5" y2="18.2"/>
	<line class="st0" x1="11" y1="6.1" x2="11" y2="18.2"/>
</g>
</svg>
