<?xml version="1.0" encoding="utf-8"?>
<!-- Generator: Adobe Illustrator 22.0.1, SVG Export Plug-In . SVG Version: 6.00 Build 0)  -->
<svg version="1.1" id="Layer_1" xmlns="http://www.w3.org/2000/svg" xmlns:xlink="http://www.w3.org/1999/xlink" x="0px" y="0px"
	 viewBox="0 0 268.6 47.9" style="enable-background:new 0 0 268.6 47.9;" xml:space="preserve">
<g>
	<path d="M32.1,24c-1.2,0.6-2.7,1.1-4.6,1.5c2.4,0.5,4.1,1.4,5,2.7c0.9,1.4,1.4,3.6,1.4,6.7v2.8c0,0.2,0,0.4,0,0.7
		c0,3,0.9,4.4,2.8,4.4c1.9,0,2.9-1.8,2.9-5.3v-1.8v-1.5v-0.9c0-1.2,0.1-2,0.2-2.5c0.3-0.7,1-1,1.9-1c1.5,0,2.2,0.9,2.2,2.6
		c0,0,0,0.5-0.1,1.4v1.3c0,0.9,0,1.4,0,1.7v1.6c0,0.2-0.1,0.6-0.1,1.1c0,2.4-0.7,4.3-2,5.6c-1.3,1.3-3.2,2-5.6,2
		c-4.9,0-7.3-2.5-7.3-7.4v-1.9v-2.1v-1.4c0-2.8-0.5-4.6-1.6-5.5s-3.2-1.3-6.5-1.3h-5.7c-1.3,0-2,0.8-2,2.4v4.8c0,3.1,0,4.8,0.1,5.2
		c0.4,2.1,1.4,3.1,3.1,3.1c0.6,0,1,0,1.3-0.1c0.7-0.1,1.2-0.1,1.6-0.1c1.3,0,2,0.7,2,2c0,1.4-0.9,2.2-2.7,2.2l-0.9-0.1l-3.3-0.4
		c-1.3-0.2-2.4-0.2-3.4-0.2c-1.2,0-2.7,0.1-4.3,0.3l-3,0.4c-0.7,0.1-1,0.1-0.9,0.1C0.9,47.2,0,46.4,0,45c0-1.3,0.6-2,1.9-2
		c0.2,0,0.8,0,1.7,0.1c0.5,0.1,0.9,0.2,1.3,0.2c2.1,0,3.2-1.6,3.2-4.7V13.8c0-3.1-1.1-4.6-3.2-4.6c-0.3,0-0.8,0.1-1.5,0.2
		S2.3,9.4,1.9,9.4c-0.5,0-1-0.2-1.4-0.6C0.2,8.4,0,8,0,7.4C0,6,0.9,5.3,2.7,5.3c0.2,0,0.5,0,0.9,0.1l3.2,0.3
		c0.8,0.1,1.9,0.1,3.1,0.1c1.3,0,2.7,0,4.3-0.1l4.7-0.2c1.6-0.1,3-0.1,4.3-0.1c9.1,0,13.6,3.5,13.6,10.4
		C36.8,19.7,35.3,22.5,32.1,24z M14.9,23.5h5.8c3.5,0,6.1-0.5,7.8-1.5c2.1-1.2,3.2-3.2,3.2-6c0-4.7-3.2-7.1-9.7-7.1
		c-3.4,0-5.8,0.3-7,0.8c-1.2,0.5-1.9,1.5-1.9,3.1v2v7.1c0,0.7,0.1,1.1,0.4,1.3C13.8,23.4,14.2,23.5,14.9,23.5z"/>
	<path d="M75.5,28.6c0,1.6-0.1,2.5-0.3,2.9c-0.2,0.4-0.8,0.5-1.8,0.5H53.7c-0.5,0-0.9,0.1-1.1,0.2c-0.2,0.1-0.2,0.4-0.2,0.7
		c0,3.1,0.9,5.7,2.8,7.8c1.9,2.1,4.2,3.1,6.9,3.1c1.8,0,3.5-0.5,5-1.5c1.5-1,2.5-2.3,2.9-3.8l0.6-1.8c0.3-1,1-1.5,2-1.5
		c1.5,0,2.3,0.8,2.3,2.4c0,2.7-1.4,5.1-4.1,7.2s-5.8,3.1-9.3,3.1c-4.3,0-7.8-1.5-10.4-4.4c-2.6-2.9-3.8-6.8-3.8-11.7
		c0-5,1.4-9.1,4.1-12.3c2.7-3.1,6.3-4.7,10.7-4.7c3.9,0,7.1,1.3,9.6,3.9C74.3,21.3,75.5,24.6,75.5,28.6z M53,27
		c0,0.6,0.5,0.9,1.4,0.9h14.8c0.9,0,1.3-0.3,1.3-0.9c0-2.2-0.8-4.1-2.5-5.7c-1.7-1.6-3.6-2.4-5.8-2.4c-2.3,0-4.4,0.8-6.3,2.5
		C54,23.1,53,25,53,27z"/>
	<path d="M106.8,47.7c-3.4,0-5.5-1.5-6.3-4.4c-2.1,3.1-5.4,4.6-9.9,4.6c-3.3,0-6-0.8-8-2.5c-2-1.7-3-3.9-3-6.6c0-3.4,1.5-6,4.4-7.6
		c1.1-0.6,2.1-1,2.9-1.2c0.8-0.2,2.4-0.4,4.9-0.7c3.5-0.4,5.7-0.9,6.8-1.5s1.6-1.9,1.6-3.7c0-1.7-0.6-3-1.8-4
		c-1.2-1-2.8-1.5-4.9-1.5c-1.9,0-3.6,0.5-5.2,1.5c-0.6,0.4-0.9,0.8-0.9,1.3c0,0.2,0.2,0.4,0.6,0.6c0.6,0.4,0.9,1.1,0.9,2.1
		c0,0.8-0.3,1.5-0.9,2c-0.6,0.5-1.4,0.8-2.3,0.8c-1.1,0-2-0.4-2.7-1.1c-0.7-0.7-1.1-1.7-1.1-2.7c0-2.3,1.1-4.3,3.4-6
		c2.3-1.7,5.1-2.5,8.3-2.5c7.5,0,11.3,3.6,11.3,10.8v12.5c0,2,0,3.2,0.1,3.5c0.2,1.4,1,2.2,2.1,2.2c1.4,0,2.2-1.3,2.2-3.9v-3
		c0-1.3,0.6-2,1.9-2c1.3,0,2,1,2,3v0.3v3.5C113,45.7,110.9,47.7,106.8,47.7z M99.9,35.3v-4.4C99,31.8,98,32.3,97,32.7
		c-1,0.3-2.8,0.6-5.4,0.9c-4.7,0.5-7,2.2-7,5.2c0,1.6,0.6,2.8,1.7,3.7c1.1,0.9,2.7,1.4,4.6,1.4c2.8,0,4.9-0.8,6.5-2.3
		C99,40.1,99.8,38,99.9,35.3z"/>
	<path d="M129,14.8c4.1,0,7.2,1.6,9.2,4.8v-6.3c0-1.7,0-2.7-0.1-3c-0.2-1.3-0.8-1.9-1.7-1.9c-0.3,0-0.8,0.1-1.4,0.2
		c-0.6,0.1-1.1,0.2-1.4,0.2c-1.5,0-2.3-0.7-2.3-2c0-1.4,1-2,3.1-2c0.3,0,0.9,0,1.8,0.1c1.3,0.1,2,0.2,2,0.2c0.4,0,0.9-0.1,1.6-0.2
		c0.7-0.1,1.2-0.2,1.6-0.2c1.2,0,1.7,0.8,1.7,2.5v0.7c0,0.1-0.1,1.2-0.1,3.3c0,0.2-0.1,1.8-0.2,4.8c-0.1,2.1-0.1,3.6-0.1,4.7v6.1
		v10.4c0,2.7,0.2,4.4,0.4,5.1c0.2,0.7,0.7,1,1.5,1c0.5,0,1,0,1.3-0.1c0.7-0.1,1.1-0.1,1.4-0.1c1.6,0,2.3,0.7,2.3,2
		c0,1.4-0.9,2.1-2.8,2.1c-0.4,0-1-0.1-1.9-0.2c-0.8-0.1-1.5-0.2-1.9-0.2c-0.1,0-0.6,0-1.4,0.1c-0.5,0.1-0.9,0.2-1.3,0.2
		c-1.1,0-1.7-0.7-1.7-2.2v-0.3v-1.1c-2.2,2.9-5.4,4.4-9.5,4.4c-4.2,0-7.6-1.5-10.1-4.6c-2.6-3.1-3.8-7.1-3.8-12c0-5,1.3-9,3.8-12
		C121.4,16.3,124.7,14.8,129,14.8z M137.9,36.7c0.2-1.4,0.2-3.1,0.2-5.3c0-2.8-0.1-4.6-0.3-5.6c-0.4-2.1-1.3-3.7-2.7-4.8
		c-1.7-1.4-3.6-2-5.7-2c-2.9,0-5.2,1.1-6.8,3.3c-1.6,2.2-2.5,5.2-2.5,9c0,3.9,0.9,7,2.6,9.3c1.7,2.3,4,3.4,7,3.4
		c2.2,0,4.1-0.7,5.6-2C136.8,40.6,137.6,38.9,137.9,36.7z"/>
	<path d="M175.4,29.1l0.1-0.7c0.7-5-1.5-7.5-6.4-7.5c-3.4,0-6.5,1.1-9.4,3.4l-2-2.9c1.5-1.4,3.4-2.4,5.5-3.1
		c2.1-0.7,4.6-1.1,7.3-1.1c1.4,0,2.7,0.2,4,0.6c1.2,0.4,2.3,1,3.1,1.9c0.8,0.8,1.5,1.9,1.9,3.2c0.4,1.3,0.5,2.8,0.2,4.6l-1.8,13
		c-0.2,1.1-0.3,2.3-0.3,3.5c-0.1,1.2-0.1,2.2-0.1,3h-4c0-0.7,0-1.5,0-2.3c0.1-0.8,0.2-1.6,0.3-2.4h-0.1c-1.4,1.9-3.1,3.3-4.8,4.2
		s-3.8,1.3-6.2,1.3c-1.3,0-2.5-0.2-3.7-0.5c-1.2-0.4-2.1-0.9-2.9-1.6s-1.4-1.6-1.8-2.7c-0.4-1.1-0.5-2.3-0.3-3.7
		c0.3-2.4,1.2-4.2,2.6-5.5c1.4-1.3,3.1-2.3,5-3s3.9-1.1,6-1.2c2.1-0.2,4-0.2,5.8-0.2H175.4z M172.8,32.4c-1,0-2.3,0.1-3.9,0.2
		c-1.6,0.1-3.1,0.4-4.6,0.7c-1.5,0.4-2.8,1-4,1.8c-1.1,0.8-1.8,2-2,3.4c-0.1,1,0,1.8,0.2,2.4c0.3,0.7,0.7,1.2,1.3,1.7
		c0.6,0.4,1.3,0.7,2.1,0.9c0.8,0.2,1.6,0.3,2.4,0.3c1.5,0,2.8-0.2,4-0.7s2.2-1.2,3-2c0.8-0.8,1.5-1.8,2-3c0.5-1.1,0.9-2.3,1.1-3.6
		l0.3-2.1H172.8z"/>
	<path d="M193.1,0h4.1L194,22.7h0.1c0.8-1,1.7-1.8,2.7-2.5s2-1.3,3.1-1.7c1.1-0.5,2.1-0.8,3.2-1c1.1-0.2,2.1-0.3,3-0.3
		c2.3,0,4.3,0.4,6.1,1.1c1.8,0.8,3.3,1.8,4.4,3.2c1.2,1.4,2,3,2.5,4.8s0.6,3.9,0.3,6.1c-0.3,2.2-1,4.2-2,6.1c-1,1.9-2.3,3.5-3.8,4.8
		c-1.6,1.4-3.3,2.4-5.3,3.2c-2,0.8-4.1,1.1-6.4,1.1c-1,0-1.9-0.1-2.9-0.3c-1-0.2-2-0.5-2.9-1c-1-0.5-1.8-1-2.6-1.7
		c-0.8-0.7-1.4-1.5-2-2.5h-0.1l-0.7,4.8h-4.1L193.1,0z M215,32.4c0.2-1.6,0.2-3.1-0.1-4.5c-0.3-1.4-0.9-2.6-1.7-3.7
		c-0.8-1-1.8-1.8-3.1-2.4c-1.3-0.6-2.7-0.9-4.4-0.9c-1.7,0-3.3,0.3-4.8,0.9c-1.5,0.6-2.8,1.4-4,2.4c-1.2,1-2.1,2.3-2.9,3.7
		c-0.8,1.4-1.3,2.9-1.5,4.5c-0.2,1.6-0.2,3.1,0.2,4.5c0.4,1.4,1,2.6,1.9,3.7c0.9,1,2,1.9,3.3,2.4c1.3,0.6,2.8,0.9,4.5,0.9
		c1.7,0,3.3-0.3,4.7-0.9c1.4-0.6,2.7-1.4,3.8-2.4c1.1-1,2-2.3,2.7-3.7C214.3,35.5,214.8,34,215,32.4z"/>
	<path d="M229.4,46.9h-4.1L231.9,0h4.1L229.4,46.9z"/>
	<path d="M243.9,33.5c-0.1,1.4,0.1,2.8,0.5,4.1c0.4,1.3,1,2.4,1.8,3.3c0.8,0.9,1.8,1.7,3,2.2c1.2,0.5,2.5,0.8,3.9,0.8
		c2.2,0,4.2-0.5,5.9-1.5c1.7-1,3.1-2.2,4.1-3.5l2.8,2.6c-2,2.2-4.2,3.8-6.4,4.7c-2.2,1-4.5,1.4-6.9,1.4c-2.1,0-4.1-0.4-5.8-1.1
		c-1.7-0.8-3.2-1.8-4.3-3.2c-1.2-1.4-2-3-2.5-4.8c-0.5-1.9-0.6-3.9-0.2-6.1c0.3-2.2,0.9-4.2,2-6.1c1-1.9,2.3-3.5,3.8-4.8
		s3.2-2.4,5.1-3.2c1.9-0.8,3.9-1.1,5.9-1.1c2.2,0,4.1,0.4,5.7,1.2c1.6,0.8,2.9,1.8,3.9,3.1s1.7,2.8,2.1,4.6c0.4,1.8,0.4,3.6,0.2,5.6
		l-0.3,1.9H243.9z M264.2,30.1c0.4-2.8-0.1-5-1.6-6.7c-1.4-1.7-3.6-2.6-6.6-2.6c-1.3,0-2.6,0.3-3.9,0.8s-2.5,1.2-3.5,2.1
		c-1.1,0.9-1.9,1.9-2.7,3s-1.2,2.3-1.3,3.5H264.2z"/>
</g>
</svg>
