<?xml version="1.0" encoding="utf-8"?>
<!-- Generator: Adobe Illustrator 22.0.1, SVG Export Plug-In . SVG Version: 6.00 Build 0)  -->
<svg version="1.1" id="Layer_1" xmlns="http://www.w3.org/2000/svg" xmlns:xlink="http://www.w3.org/1999/xlink" x="0px" y="0px"
	 viewBox="0 0 24.6 24.7" style="enable-background:new 0 0 24.6 24.7;" xml:space="preserve">
<style type="text/css">
	.st0{fill:#009245;}
</style>
<g id="People_8_">
	<g id="Icon-41_4_">
		<path id="thumb-up_4_" class="st0" d="M2.5,21.4c0,0.5,0.4,0.8,0.8,0.8c0.5,0,0.8-0.4,0.8-0.8c0-0.5-0.4-0.8-0.8-0.8
			C2.9,20.6,2.5,20.9,2.5,21.4 M24.5,12.3l-2.2,9c-0.4,1.4-1.3,2.4-2.5,2.4l-6.2,0c-1.1,0-1.9-0.4-2.7-0.9c-0.7-0.4-1.3-0.8-2.3-0.8
			l-0.8,0c-0.2,0-0.4-0.2-0.4-0.4c0-0.2,0.2-0.4,0.4-0.4l0.8,0c1.1,0,1.9,0.4,2.7,0.9c0.7,0.4,1.3,0.8,2.3,0.8l6.2,0
			c1,0,1.5-0.9,1.7-1.7l2.2-9c0.1-0.5,0.1-0.9-0.1-1.2c-0.2-0.3-0.7-0.4-1.1-0.4l-5.7,0c-0.5,0-0.9-0.1-1.2-0.4l0,1.6
			c0,2.1-1.6,3.7-3.7,3.7c-0.2,0-0.4-0.2-0.4-0.4c0-0.2,0.2-0.4,0.4-0.4c1.6,0,2.9-1.3,2.9-2.9l0-8.2c0-1.8-1.1-2.9-2.9-2.9
			c-0.7,0-1.2,0.6-1.2,1.2l0,4.1c0,2.4-1.7,4.3-4.1,4.5l0.1,13.6c0,0.2-0.2,0.4-0.4,0.4l-5.7,0c-0.2,0-0.4-0.2-0.4-0.4L0,8.7
			c0-0.2,0.2-0.4,0.4-0.4l5.7,0c0.2,0,0.4,0.2,0.4,0.4c0,0.2-0.2,0.4-0.4,0.4l-5.3,0l0.1,14.8l4.9,0L5.7,10.3c0-0.2,0.2-0.4,0.4-0.4
			c2.1,0,3.7-1.6,3.7-3.7l0-4.1c0-1.1,0.9-2.1,2-2.1c2.3,0,3.7,1.4,3.7,3.7l0,4.9c0,0.7,0.5,1.2,1.2,1.2l5.7,0
			c0.8,0,1.4,0.2,1.7,0.7C24.6,10.9,24.7,11.6,24.5,12.3"/>
	</g>
</g>
</svg>
