<?xml version="1.0" encoding="utf-8"?>
<!-- Generator: Adobe Illustrator 22.0.1, SVG Export Plug-In . SVG Version: 6.00 Build 0)  -->
<svg version="1.1" id="Layer_1" xmlns="http://www.w3.org/2000/svg" xmlns:xlink="http://www.w3.org/1999/xlink" x="0px" y="0px"
	 viewBox="0 0 24.7 24.6" style="enable-background:new 0 0 24.7 24.6;" xml:space="preserve">
<style type="text/css">
	.st0{fill:#009245;}
</style>
<g id="People_9_">
	<g id="Icon-42_4_">
		<path id="thumb-down_4_" class="st0" d="M24.5,11.4l-2.3-9C21.9,0.9,20.9,0,19.7,0l-6.2,0c-1.1,0-1.9,0.5-2.7,0.9
			c-0.7,0.4-1.3,0.8-2.3,0.8l-0.8,0c-0.2,0-0.4,0.2-0.4,0.4s0.2,0.4,0.4,0.4l0.8,0c1.1,0,1.9-0.5,2.7-0.9c0.7-0.4,1.3-0.8,2.3-0.8
			l6.2,0c1,0,1.6,0.9,1.8,1.7l2.3,9c0.1,0.5,0.1,0.9-0.1,1.2c-0.2,0.3-0.7,0.4-1.1,0.4l-5.7,0c-1.1,0-2,0.9-2,2.1l0,5.7
			c0,1.8-1,2.9-2.9,2.9c-0.7,0-1.2-0.6-1.2-1.2l0-4.9c0-2.4-1.8-4.3-4.1-4.5L6.6,0.5c0-0.2-0.2-0.4-0.4-0.4l-5.7,0
			C0.2,0.1,0,0.3,0,0.5l0.1,15.6c0,0.2,0.2,0.4,0.4,0.4l5.7,0c0.2,0,0.4-0.2,0.4-0.4l0-0.8c0-0.2-0.2-0.4-0.4-0.4
			c-0.2,0-0.4,0.2-0.4,0.4l0,0.4l-4.9,0L0.8,0.9l4.9,0l0.1,12.7C5.8,13.8,6,14,6.2,14c2.1,0,3.7,1.6,3.7,3.7l0,4.9
			c0,1.1,0.9,2,2.1,2c2.3,0,3.7-1.4,3.7-3.7l0-5.7c0-0.7,0.5-1.2,1.2-1.2l5.7,0c0.8,0,1.4-0.2,1.7-0.7
			C24.7,12.8,24.8,12.1,24.5,11.4 M3.3,12.4c0.5,0,0.8,0.4,0.8,0.8c0,0.5-0.4,0.8-0.8,0.8c-0.5,0-0.8-0.4-0.8-0.8
			C2.5,12.8,2.9,12.4,3.3,12.4"/>
	</g>
</g>
</svg>
