<?xml version="1.0" encoding="utf-8"?>
<!-- Generator: Adobe Illustrator 22.0.1, SVG Export Plug-In . SVG Version: 6.00 Build 0)  -->
<svg version="1.1" id="Layer_1" xmlns="http://www.w3.org/2000/svg" xmlns:xlink="http://www.w3.org/1999/xlink" x="0px" y="0px"
	 viewBox="0 0 70 79" style="enable-background:new 0 0 70 79;" xml:space="preserve">
<style type="text/css">
	.st0{fill:#009245;}
	.st1{fill:url(#SVGID_1_);}
	.st2{fill:#FFFFFF;}
</style>
<g>
	<g>
		<polygon class="st0" points="35,0 0,18 0,79 70,79 70,18 		"/>
		<linearGradient id="SVGID_1_" gradientUnits="userSpaceOnUse" x1="39.6848" y1="76.2743" x2="26.5452" y2="-1.6253">
			<stop  offset="0" style="stop-color:#CCE0F4;stop-opacity:0"/>
			<stop  offset="9.970063e-02" style="stop-color:#C3DAF0;stop-opacity:0.1003"/>
			<stop  offset="0.2656" style="stop-color:#A9C9E4;stop-opacity:0.2671"/>
			<stop  offset="0.4772" style="stop-color:#80AED1;stop-opacity:0.4799"/>
			<stop  offset="0.7263" style="stop-color:#4689B7;stop-opacity:0.7304"/>
			<stop  offset="0.9944" style="stop-color:#005B97"/>
		</linearGradient>
		<polygon class="st1" points="35,0 0,18 0,79 70,79 70,18 		"/>
	</g>
	<g>
		<path class="st2" d="M27.3,58.4h2.7v5.2h14.7v3.2H29.9v5.2h-2.7V58.4z"/>
		<path class="st2" d="M35.9,40.7c1.3,0,2.4,0.2,3.5,0.6c1.1,0.4,2,1,2.8,1.8c0.8,0.8,1.4,1.7,1.9,2.8s0.7,2.3,0.7,3.6
			s-0.2,2.5-0.7,3.6s-1.1,2-1.9,2.8c-0.8,0.8-1.7,1.4-2.8,1.8s-2.3,0.6-3.5,0.6c-1.3,0-2.5-0.2-3.5-0.6s-2-1-2.8-1.8
			s-1.4-1.7-1.9-2.8s-0.7-2.3-0.7-3.6s0.2-2.5,0.7-3.6s1.1-2,1.9-2.8c0.8-0.8,1.7-1.4,2.8-1.8C33.5,40.9,34.7,40.7,35.9,40.7z
			 M35.9,44c-1,0-1.8,0.1-2.6,0.4S32,45,31.4,45.5c-0.5,0.5-0.9,1-1.2,1.7s-0.4,1.4-0.4,2.3s0.1,1.6,0.4,2.3s0.7,1.3,1.2,1.7
			c0.5,0.5,1.2,0.8,1.9,1.1S35,55,35.9,55c1,0,1.8-0.1,2.6-0.4s1.4-0.6,1.9-1.1c0.5-0.5,0.9-1.1,1.2-1.7s0.4-1.4,0.4-2.3
			s-0.1-1.6-0.4-2.3s-0.7-1.2-1.2-1.7c-0.5-0.5-1.2-0.8-1.9-1.1S36.9,44,35.9,44z"/>
		<path class="st2" d="M38.5,34.8h6.1V38H27.3v-5.7c0-1.2,0.1-2.2,0.4-3c0.3-0.8,0.7-1.5,1.1-2.1c0.5-0.6,1.1-1,1.8-1.2
			c0.7-0.3,1.4-0.4,2.2-0.4c0.8,0,1.6,0.1,2.3,0.4c0.7,0.3,1.3,0.7,1.8,1.3s0.9,1.3,1.2,2.1c0.3,0.8,0.4,1.8,0.4,3V34.8z M36,34.8
			v-2.4c0-0.6-0.1-1.1-0.2-1.5c-0.1-0.4-0.4-0.8-0.6-1.1c-0.3-0.3-0.6-0.5-1-0.6c-0.4-0.1-0.8-0.2-1.3-0.2c-0.5,0-0.9,0.1-1.3,0.2
			c-0.4,0.1-0.7,0.4-1,0.6c-0.3,0.3-0.5,0.7-0.6,1.1c-0.1,0.4-0.2,1-0.2,1.5v2.4H36z"/>
	</g>
</g>
</svg>
